<svg width="200" height="200" viewBox="0 0 200 200" fill="none" xmlns="http://www.w3.org/2000/svg">
<path d="M48.98 164.71C47.65 164.71 46.57 165.79 46.57 167.12V181.52C46.57 182.55 47.82 183.07 48.55 182.34L52.71 178.18C53.65 177.24 55.17 177.24 56.11 178.18L60.27 182.34C61 183.07 62.25 182.55 62.25 181.52V167.12C62.25 165.79 61.17 164.71 59.84 164.71H48.98Z" fill="#303D57"/>
<path d="M185 10.5C185 4.7 180.3 0 174.5 0H41.32C27.34 0 16 11.34 16 25.32V174.67C16 188.66 27.34 200 41.32 200H174.5C180.3 200 185 195.3 185 189.5H41.5C33.06 189.5 26.25 182.53 26.51 174.04C26.76 165.83 33.92 159.5 42.13 159.5H185V10.5ZM122.81 129.75C122.21 130.01 121.51 130.31 120.71 130.66C115.98 132.4 105.43 137.24 95.4 134.37C89.89 132.71 86.02 129.38 84.68 123.61C83.96 120.49 84.36 117.34 84.9 114.23C86.18 106.87 88.69 99.83 90.61 92.63C91.67 88.64 92.85 84.68 93.41 80.58C93.65 78.83 93.67 77.09 93.35 75.34C92.93 73.08 91.64 71.72 89.38 71.23C86.29 70.57 83.28 70.86 80.29 71.79C79.19 72.13 78.1 72.51 76.85 72.92C77.37 70.82 77.86 68.88 78.32 66.94C78.41 66.56 78.63 66.41 78.95 66.28C83.97 64.39 88.91 62.26 94.23 61.31C99.55 60.35 104.8 60.48 109.77 62.94C114.76 65.42 117.48 70.89 117.26 76.43C116.96 84.16 114.29 91.3 112.37 98.64C111.11 103.44 109.49 108.15 108.63 113.06C108.19 115.58 107.76 118.11 108.29 120.68C108.71 122.68 109.79 124.04 111.8 124.61C115.04 125.52 118.24 125.23 121.43 124.32C122.38 124.05 123.31 123.74 124.34 123.41L122.81 129.75ZM112.46 48.84C104.93 48.84 98.83 42.74 98.83 35.21C98.83 27.68 104.93 21.58 112.46 21.58C119.99 21.58 126.09 27.68 126.09 35.21C126.09 42.73 119.99 48.84 112.46 48.84Z" fill="#303D57"/>
</svg>
