<svg width="170" height="195" viewBox="0 0 170 195" fill="none" xmlns="http://www.w3.org/2000/svg">
<path d="M158.18 20.85H123.37V12.39C123.37 5.56 117.81 0 110.98 0H57.06C50.23 0 44.67 5.56 44.67 12.39V20.85H12.36C5.93999 20.85 0.73999 26.05 0.73999 32.47C0.73999 38.89 5.92999 44.09 12.36 44.09H158.18C164.6 44.09 169.8 38.89 169.8 32.47C169.8 26.05 164.6 20.85 158.18 20.85ZM54.51 12.39C54.51 10.98 55.65 9.84 57.06 9.84H110.99C112.4 9.84 113.54 10.98 113.54 12.39V20.85H54.51V12.39Z" fill="currentColor"/>
<path d="M152.05 59.24H109.6H86.9699H17.9599C14.8599 59.24 12.4099 61.89 12.6599 64.98L21.9099 181C22.5399 188.91 29.1399 195 37.0699 195H86.9699H109.6H132.94C140.87 195 147.47 188.91 148.1 181L157.35 64.98C157.59 61.89 155.15 59.24 152.05 59.24ZM54.9099 173.1C54.7999 173.11 54.6899 173.11 54.5699 173.11C51.9999 173.11 49.8399 171.12 49.6699 168.52L43.6099 78.63C43.4299 75.92 45.4799 73.57 48.1899 73.39C50.8999 73.2 53.2499 75.26 53.4299 77.97L59.4899 167.86C59.6699 170.58 57.6199 172.92 54.9099 173.1ZM89.9199 168.3C89.9199 171.02 87.7199 173.22 84.9999 173.22C82.2799 173.22 80.0799 171.02 80.0799 168.3V78.21C80.0799 75.49 82.2799 73.29 84.9999 73.29C87.7199 73.29 89.9199 75.49 89.9199 78.21V168.3ZM120.33 168.53C120.16 171.13 117.99 173.12 115.43 173.12C115.32 173.12 115.21 173.12 115.09 173.11C112.38 172.93 110.33 170.58 110.51 167.87L116.57 77.98C116.75 75.27 119.09 73.22 121.81 73.4C124.52 73.58 126.57 75.93 126.39 78.64L120.33 168.53Z" fill="currentColor"/>
</svg>