<svg width="200" height="200" viewBox="0 0 200 200" fill="none" xmlns="http://www.w3.org/2000/svg">
<path d="M178.98 42H146V26.72C146 17.43 138.45 9.88 129.16 9.88H73.84C64.55 9.88 57 17.44 57 26.72V42H21.02C9.41 42 0 51.41 0 63.02V73.87L100 109.86L200 73.87V63.02C200 51.41 190.59 42 178.98 42ZM67 42V26.72C67 22.95 70.07 19.88 73.84 19.88H129.16C132.93 19.88 136 22.95 136 26.72V42H67Z" fill="#303D57"/>
<path d="M0 89.5V162.98C0 174.59 9.41 184 21.02 184H178.98C190.59 184 200 174.59 200 162.98V89.5L100 125.49L0 89.5Z" fill="#303D57"/>
</svg>
