<svg width="185" height="192" viewBox="0 0 185 192" fill="none" xmlns="http://www.w3.org/2000/svg">
<path d="M167.12 25.52H161.03C158.14 25.52 155.8 27.86 155.8 30.75V43.57C155.8 46.18 153.89 48.51 151.29 48.76C148.31 49.04 145.8 46.71 145.8 43.78V25.52V5C145.8 2.24 143.56 0 140.8 0C138.04 0 135.8 2.24 135.8 5V25.52H63.73C60.84 25.52 58.5 27.86 58.5 30.75V43.57C58.5 46.18 56.59 48.51 53.99 48.76C51.01 49.04 48.5 46.71 48.5 43.78V25.52V5C48.5 2.24 46.26 0 43.5 0C40.74 0 38.5 2.24 38.5 5V25.52H17.88C8.22001 25.52 0.380005 33.35 0.380005 43.02V174.5C0.380005 184.16 8.21 192 17.88 192H167.12C176.78 192 184.62 184.17 184.62 174.5V43.02C184.62 33.36 176.78 25.52 167.12 25.52ZM174.62 174.5C174.62 178.63 171.26 182 167.12 182H17.88C13.75 182 10.38 178.64 10.38 174.5V76.02H174.61V174.5H174.62Z" fill="currentColor"/>
<path d="M36.59 121.92H51.87C56.75 121.92 60.72 117.95 60.72 113.07V97.7899C60.72 92.9099 56.75 88.9399 51.87 88.9399H36.59C31.71 88.9399 27.74 92.9099 27.74 97.7899V113.07C27.74 117.95 31.71 121.92 36.59 121.92Z" fill="currentColor"/>
<path d="M85.73 121.92H101.01C105.89 121.92 109.86 117.95 109.86 113.07V97.7899C109.86 92.9099 105.89 88.9399 101.01 88.9399H85.73C80.85 88.9399 76.88 92.9099 76.88 97.7899V113.07C76.88 117.95 80.85 121.92 85.73 121.92Z" fill="currentColor"/>
<path d="M134.87 121.92H150.15C155.03 121.92 159 117.95 159 113.07V97.7899C159 92.9099 155.03 88.9399 150.15 88.9399H134.87C129.99 88.9399 126.02 92.9099 126.02 97.7899V113.07C126.02 117.95 129.99 121.92 134.87 121.92Z" fill="currentColor"/>
<path d="M36.59 168.83H51.87C56.75 168.83 60.72 164.86 60.72 159.98V144.7C60.72 139.82 56.75 135.85 51.87 135.85H36.59C31.71 135.85 27.74 139.82 27.74 144.7V159.98C27.74 164.87 31.71 168.83 36.59 168.83Z" fill="currentColor"/>
<path d="M85.73 168.83H101.01C105.89 168.83 109.86 164.86 109.86 159.98V144.7C109.86 139.82 105.89 135.85 101.01 135.85H85.73C80.85 135.85 76.88 139.82 76.88 144.7V159.98C76.88 164.87 80.85 168.83 85.73 168.83Z" fill="currentColor"/>
<path d="M134.87 168.83H150.15C155.03 168.83 159 164.86 159 159.98V144.7C159 139.82 155.03 135.85 150.15 135.85H134.87C129.99 135.85 126.02 139.82 126.02 144.7V159.98C126.02 164.87 129.99 168.83 134.87 168.83ZM136.02 145.86H149V158.84H136.02V145.86Z" fill="currentColor"/>
</svg>