<svg width="200" height="200" viewBox="0 0 200 200" fill="none" xmlns="http://www.w3.org/2000/svg">
<path d="M81.19 36.14H127.65C132.64 36.14 136.68 32.1 136.68 27.11C136.68 22.12 132.64 18.08 127.65 18.08H121.58C121.59 17.79 121.62 17.51 121.62 17.22C121.62 7.72001 113.92 0.0100098 104.41 0.0100098C94.9 0.0100098 87.21 7.70001 87.21 17.21C87.21 17.5 87.24 17.78 87.25 18.07H81.18C76.19 18.07 72.15 22.11 72.15 27.1C72.15 32.09 76.2 36.14 81.19 36.14ZM104.42 6.88001C107.98 6.88001 110.87 9.77001 110.87 13.33C110.87 16.89 107.98 19.78 104.42 19.78C100.86 19.78 97.97 16.89 97.97 13.33C97.96 9.77001 100.85 6.88001 104.42 6.88001Z" fill="#303D57"/>
<path d="M165.19 27.21H152.15C149.31 27.21 146.79 29.11 146.08 31.87C143.96 40.07 136.5 46.14 127.65 46.14H81.19C72.34 46.14 64.87 40.07 62.75 31.86C62.04 29.11 59.52 27.21 56.68 27.21H43.31C37.72 27.21 33.19 31.74 33.19 37.33V189.13C33.19 194.72 37.72 199.25 43.31 199.25H165.18C170.77 199.25 175.3 194.72 175.3 189.13V37.33C175.31 31.74 170.78 27.21 165.19 27.21ZM64.65 166.38L50.34 152.07L57.41 145L64.65 152.24L87.46 129.43L94.53 136.5L64.65 166.38ZM64.65 108.38L50.35 94.08L57.42 87.01L64.66 94.25L87.47 71.44L94.54 78.51L64.65 108.38ZM153.5 157H108C105.24 157 103 154.76 103 152C103 149.24 105.24 147 108 147H153.5C156.26 147 158.5 149.24 158.5 152C158.5 154.76 156.26 157 153.5 157ZM153.5 99H108C105.24 99 103 96.76 103 94C103 91.24 105.24 89 108 89H153.5C156.26 89 158.5 91.24 158.5 94C158.5 96.76 156.26 99 153.5 99Z" fill="#303D57"/>
</svg>
