<svg width="200" height="200" viewBox="0 0 200 200" fill="none" xmlns="http://www.w3.org/2000/svg">
<g clip-path="url(#clip0_101_37)">
<path d="M83.99 18.61C37.01 22.17 0 61.41 0 109.3C0 159.49 40.77 200.26 90.96 200.26C138.85 200.26 178.09 163.25 181.65 116.27C181.93 112.52 179.01 109.31 175.25 109.31H97.38C93.83 109.31 90.96 106.43 90.96 102.89V25.01C90.95 21.25 87.74 18.33 83.99 18.61Z" fill="#303D57"/>
<path d="M109.28 6.69V84.56C109.28 88.11 112.16 90.98 115.7 90.98H193.57C197.28 90.98 200.26 87.85 199.98 84.15C196.66 39.36 160.9 3.6 116.11 0.269999C112.41 -1.08592e-06 109.28 2.98 109.28 6.69Z" fill="#303D57"/>
</g>
<defs>
<clipPath id="clip0_101_37">
<rect width="200" height="200" fill="white"/>
</clipPath>
</defs>
</svg>
