<svg width="200" height="200" viewBox="0 0 200 200" fill="none" xmlns="http://www.w3.org/2000/svg">
<g clip-path="url(#clip0_101_50)">
<path d="M27.46 45.13H60.59C62.53 45.13 64.11 43.56 64.11 41.61V8.49001C64.11 5.36001 60.32 3.79001 58.11 6.00001L24.98 39.13C22.76 41.34 24.33 45.13 27.46 45.13Z" fill="#303D57"/>
<path d="M172.14 0H83.25C78.34 0 74.36 3.98 74.36 8.89V46.5C74.36 51.41 70.38 55.39 65.47 55.39H27.86C22.95 55.39 18.97 59.37 18.97 64.28V191.12C18.97 196.03 22.95 200.01 27.86 200.01H172.13C177.04 200.01 181.02 196.03 181.02 191.12V8.89C181.03 3.98 177.05 0 172.14 0ZM97.44 168.21H46.15C43.6 168.21 41.53 166.14 41.53 163.59C41.53 161.04 43.6 158.97 46.15 158.97H97.43C99.98 158.97 102.05 161.04 102.05 163.59C102.05 166.14 99.98 168.21 97.44 168.21ZM152.82 141.54H46.15C43.6 141.54 41.53 139.47 41.53 136.92C41.53 134.37 43.6 132.3 46.15 132.3H152.82C155.37 132.3 157.44 134.37 157.44 136.92C157.44 139.47 155.37 141.54 152.82 141.54ZM152.82 114.87H46.15C43.6 114.87 41.53 112.8 41.53 110.25C41.53 107.7 43.6 105.63 46.15 105.63H152.82C155.37 105.63 157.44 107.7 157.44 110.25C157.44 112.81 155.37 114.87 152.82 114.87ZM152.82 88.21H46.15C43.6 88.21 41.53 86.14 41.53 83.59C41.53 81.04 43.6 78.97 46.15 78.97H152.82C155.37 78.97 157.44 81.04 157.44 83.59C157.44 86.14 155.37 88.21 152.82 88.21Z" fill="#303D57"/>
</g>
<defs>
<clipPath id="clip0_101_50">
<rect width="200" height="200" fill="white"/>
</clipPath>
</defs>
</svg>
