<svg width="200" height="200" viewBox="0 0 200 200" fill="none" xmlns="http://www.w3.org/2000/svg">
<g clip-path="url(#clip0_101_40)">
<path d="M72.76 51.2601H126.86C132.67 51.2601 137.38 46.5501 137.38 40.7401C137.38 34.9301 132.67 30.2201 126.86 30.2201H119.8C119.82 29.8901 119.85 29.5601 119.85 29.2201C119.85 18.1501 110.88 9.18005 99.81 9.18005C88.74 9.18005 79.77 18.1501 79.77 29.2201C79.77 29.5601 79.8 29.8901 79.82 30.2201H72.76C66.95 30.2201 62.24 34.9301 62.24 40.7401C62.24 46.5501 66.95 51.2601 72.76 51.2601ZM99.81 17.2001C103.96 17.2001 107.32 20.5601 107.32 24.7101C107.32 28.8601 103.96 32.2201 99.81 32.2201C95.66 32.2201 92.3 28.8601 92.3 24.7101C92.3 20.5601 95.66 17.2001 99.81 17.2001Z" fill="#303D57"/>
<path d="M50.92 113.1C56.18 113.1 60.45 108.83 60.45 103.57C60.45 98.31 56.18 94.04 50.92 94.04C45.66 94.04 41.39 98.31 41.39 103.57C41.39 108.83 45.66 113.1 50.92 113.1Z" fill="#303D57"/>
<path d="M50.92 117.43C39.75 117.43 30.31 124.85 27.26 135.02C26.2 138.56 28.86 142.12 32.55 142.12H69.28C72.97 142.12 75.63 138.56 74.57 135.02C71.53 124.85 62.09 117.43 50.92 117.43Z" fill="#303D57"/>
<path d="M183.89 40.7401H149.76C148.46 40.7401 147.42 41.7301 147.27 43.0201C146.13 53.2701 137.41 61.2801 126.86 61.2801H72.76C62.21 61.2801 53.49 53.2801 52.35 43.0201C52.21 41.7301 51.16 40.7401 49.86 40.7401H15.74C6.84001 40.7401 -0.369995 47.9501 -0.369995 56.8501V160.88C-0.369995 169.78 6.84001 176.99 15.74 176.99H183.89C192.79 176.99 200 169.78 200 160.88V56.8501C200 47.9501 192.79 40.7401 183.89 40.7401ZM84.01 145.22C84.01 147.79 81.92 149.88 79.35 149.88H24.31C21.74 149.88 19.65 147.79 19.65 145.22V90.1801C19.65 87.6101 21.74 85.5201 24.31 85.5201H79.35C81.92 85.5201 84.01 87.6101 84.01 90.1801V145.22ZM137.51 148.15H106.27C103.62 148.15 101.46 146 101.46 143.34C101.46 140.69 103.61 138.53 106.27 138.53H137.51C140.16 138.53 142.32 140.68 142.32 143.34C142.32 146 140.17 148.15 137.51 148.15ZM175.97 121.72H106.27C103.62 121.72 101.46 119.57 101.46 116.91C101.46 114.26 103.61 112.1 106.27 112.1H175.97C178.62 112.1 180.78 114.25 180.78 116.91C180.77 119.57 178.62 121.72 175.97 121.72ZM175.97 95.2801H106.27C103.62 95.2801 101.46 93.1301 101.46 90.4701C101.46 87.8201 103.61 85.6601 106.27 85.6601H175.97C178.62 85.6601 180.78 87.8101 180.78 90.4701C180.77 93.1301 178.62 95.2801 175.97 95.2801Z" fill="#303D57"/>
</g>
<defs>
<clipPath id="clip0_101_40">
<rect width="200" height="200" fill="white"/>
</clipPath>
</defs>
</svg>
