<svg width="196" height="134" viewBox="0 0 196 134" fill="none" xmlns="http://www.w3.org/2000/svg">
<path d="M88.91 110.38H12.16C5.63998 110.38 0.349976 115.67 0.349976 122.19C0.349976 128.71 5.63998 134 12.16 134H88.92C95.44 134 100.73 128.71 100.73 122.19C100.72 115.67 95.44 110.38 88.91 110.38Z" fill="#303D57"/>
<path d="M183.38 55.1899H12.16C5.63998 55.1899 0.349976 60.4799 0.349976 66.9999C0.349976 73.5199 5.63998 78.8099 12.16 78.8099H183.39C189.91 78.8099 195.2 73.5199 195.2 66.9999C195.19 60.4799 189.91 55.1899 183.38 55.1899Z" fill="#303D57"/>
<path d="M12.16 23.62H183.39C189.91 23.62 195.2 18.33 195.2 11.81C195.2 5.29 189.91 0 183.39 0H12.16C5.62997 0 0.349976 5.29 0.349976 11.81C0.349976 18.33 5.62997 23.62 12.16 23.62Z" fill="#303D57"/>
</svg>