<svg width="200" height="190" viewBox="0 0 200 190" fill="none" xmlns="http://www.w3.org/2000/svg">
<path d="M132.24 136H68.76C66 136 63.76 138.24 63.76 141C63.76 143.76 66 146 68.76 146H132.23C134.99 146 137.23 143.76 137.23 141C137.23 138.24 135 136 132.24 136Z" fill="currentColor"/>
<path d="M191.47 43H161.25V12.85C161.25 5.88998 155.59 0.22998 148.63 0.22998H50.86C43.9 0.22998 38.24 5.88998 38.24 12.85V43H8.01999C3.44999 43 -0.26001 46.71 -0.26001 51.28V141.73C-0.26001 146.3 3.44999 150.01 8.01999 150.01H38.24V177.38C38.24 184.34 43.9 190 50.86 190H148.64C155.6 190 161.26 184.34 161.26 177.38V150H191.48C196.05 150 199.76 146.29 199.76 141.72V51.28C199.75 46.71 196.04 43 191.47 43ZM48.24 12.85C48.24 11.41 49.41 10.23 50.86 10.23H148.64C150.08 10.23 151.26 11.4 151.26 12.85V43H48.24V12.85ZM148.64 179.99H50.86C49.42 179.99 48.24 178.82 48.24 177.37V121H151.26V177.37C151.25 178.82 150.08 179.99 148.64 179.99ZM173.24 79H140C137.24 79 135 76.76 135 74C135 71.24 137.24 69 140 69H173.24C176 69 178.24 71.24 178.24 74C178.24 76.76 176 79 173.24 79Z" fill="currentColor"/>
<path d="M132.24 158H68.76C66 158 63.76 160.24 63.76 163C63.76 165.76 66 168 68.76 168H132.23C134.99 168 137.23 165.76 137.23 163C137.23 160.24 135 158 132.24 158Z" fill="currentColor"/>
</svg>
