<svg width="148" height="148" viewBox="0 0 148 148" fill="none" xmlns="http://www.w3.org/2000/svg">
<path d="M135.38 85.62H85.5801V135.42C85.5801 141.95 80.2901 147.23 73.7701 147.23C67.2501 147.23 61.9601 141.95 61.9601 135.42V85.62H12.1601C5.6301 85.62 0.350098 80.33 0.350098 73.81C0.350098 67.29 5.6301 62 12.1601 62H61.9601V12.2C61.9601 5.67002 67.2501 0.390015 73.7701 0.390015C80.2901 0.390015 85.5801 5.67002 85.5801 12.2V62H135.38C141.91 62 147.19 67.29 147.19 73.81C147.19 80.33 141.91 85.62 135.38 85.62Z" fill="currentColor"/>
</svg>