<svg width="200" height="200" viewBox="0 0 200 200" fill="none" xmlns="http://www.w3.org/2000/svg">
<g clip-path="url(#clip0_101_54)">
<path d="M100 0C44.77 0 0 44.77 0 100C0 155.23 44.77 200 100 200C155.23 200 200 155.23 200 100C200 44.77 155.23 0 100 0ZM100 190C50.37 190 10 149.63 10 100C10 50.37 50.37 10 100 10C149.63 10 190 50.37 190 100C190 149.63 149.63 190 100 190Z" fill="#303D57"/>
<path d="M126.48 83.39C124.37 83.39 122.7 83.82 121.47 84.69C120.23 85.56 119.33 86.86 118.76 88.6C118.19 90.34 117.88 92.54 117.83 95.19V96.49C117.83 99.33 118.1 101.74 118.64 103.72C119.18 105.69 120.09 107.19 121.37 108.22C122.65 109.25 124.4 109.76 126.64 109.76C128.48 109.76 130 109.25 131.18 108.22C132.37 107.19 133.25 105.69 133.85 103.7C134.44 101.71 134.74 99.28 134.74 96.41C134.74 92.09 134.07 88.84 132.73 86.66C131.38 84.48 129.3 83.39 126.48 83.39Z" fill="#303D57"/>
<path d="M78.05 72.77C76.17 71.61 73.25 71.03 69.3 71.03H65.59V86.63H69.54C73.59 86.63 76.5 85.95 78.25 84.6C80 83.24 80.88 81.25 80.88 78.62C80.87 75.87 79.93 73.93 78.05 72.77Z" fill="#303D57"/>
<path d="M100 20C55.89 20 20 55.89 20 100C20 144.11 55.89 180 100 180C144.11 180 180 144.11 180 100C180 55.89 144.11 20 100 20ZM85.89 118.73L72.11 96.58H65.59V118.73H53.35V61H70.17C75.41 61 79.73 61.63 83.14 62.9C86.55 64.16 89.08 66.07 90.74 68.63C92.4 71.18 93.23 74.41 93.23 78.3C93.23 80.93 92.73 83.24 91.73 85.21C90.73 87.18 89.41 88.86 87.78 90.22C86.15 91.59 84.38 92.71 82.49 93.58L99.47 118.73H85.89ZM144.85 109.2C143.4 112.61 141.4 115.18 138.85 116.92C136.3 118.66 133.36 119.53 130.04 119.53C127.91 119.53 126.08 119.26 124.55 118.72C123.02 118.18 121.72 117.48 120.64 116.63C119.56 115.77 118.63 114.86 117.84 113.89H117.21C117.42 114.94 117.58 116.02 117.68 117.13C117.78 118.24 117.84 119.31 117.84 120.37V138.18H105.8V74.58H115.59L117.29 80.31H117.84C118.63 79.13 119.59 78.03 120.72 77.03C121.85 76.03 123.21 75.23 124.81 74.64C126.4 74.05 128.25 73.75 130.36 73.75C135.34 73.75 139.36 75.69 142.42 79.56C145.49 83.43 147.02 89.1 147.02 96.58C147.02 101.58 146.29 105.79 144.85 109.2Z" fill="#303D57"/>
</g>
<defs>
<clipPath id="clip0_101_54">
<rect width="200" height="200" fill="white"/>
</clipPath>
</defs>
</svg>
