<svg width="192" height="184" viewBox="0 0 192 184" fill="none" xmlns="http://www.w3.org/2000/svg">
<path d="M187.21 66.64L126.12 63.61C124.27 63.52 122.65 62.34 121.99 60.61L100.23 3.45001C98.7 -0.559995 93.04 -0.559995 91.51 3.45001L69.76 60.61C69.1 62.34 67.48 63.52 65.63 63.61L4.54996 66.64C0.269961 66.85 -1.48004 72.24 1.85996 74.93L49.5 113.29C50.94 114.45 51.56 116.36 51.08 118.14L35.09 177.17C33.97 181.31 38.55 184.64 42.14 182.29L93.34 148.84C94.89 147.83 96.89 147.83 98.44 148.84L149.64 182.29C153.23 184.63 157.81 181.3 156.69 177.17L140.7 118.14C140.22 116.35 140.83 114.45 142.28 113.29L189.92 74.93C193.25 72.24 191.5 66.85 187.21 66.64Z" fill="currentColor"/>
</svg>
