<svg width="200" height="200" viewBox="0 0 200 200" fill="none" xmlns="http://www.w3.org/2000/svg">
<g clip-path="url(#clip0_101_68)">
<path d="M100 0C44.77 0 0 44.77 0 100C0 155.23 44.77 200 100 200C155.23 200 200 155.23 200 100C200 44.77 155.23 0 100 0ZM99.75 36C112.45 36 122.74 46.29 122.74 58.99C122.74 71.69 112.45 81.98 99.75 81.98C87.05 81.98 76.76 71.69 76.76 58.99C76.76 46.29 87.06 36 99.75 36ZM144.05 152H55.45C46.54 152 40.13 143.41 42.68 134.87C50.04 110.32 72.8 92.43 99.75 92.43C126.69 92.43 149.46 110.32 156.82 134.87C159.38 143.41 152.97 152 144.05 152Z" fill="#303D57"/>
</g>
<defs>
<clipPath id="clip0_101_68">
<rect width="200" height="200" fill="white"/>
</clipPath>
</defs>
</svg>
