<svg width="190" height="118" viewBox="0 0 190 118" fill="none" xmlns="http://www.w3.org/2000/svg">
<path d="M151.24 68.08L102.31 87.83C99.98 88.77 97.52 89.25 95 89.25C92.48 89.25 90.02 88.77 87.69 87.83L38.76 68.08L34.62 94.09C34.29 96.2 35.74 98.18 37.85 98.49C46.85 99.81 70.19 104.19 92.4 116.52C94.01 117.41 95.99 117.41 97.6 116.52C119.81 104.19 143.15 99.81 152.15 98.49C154.26 98.18 155.71 96.2 155.38 94.09L151.24 68.08Z" fill="#8EC1F4"/>
<path d="M187.53 36.61L98.57 0.70001C96.28 -0.21999 93.72 -0.21999 91.43 0.70001L2.47 36.61C-0.24 37.71 -0.24 41.55 2.47 42.64L91.42 78.55C93.71 79.47 96.27 79.47 98.56 78.55L157.35 54.82C158.69 54.28 158.65 52.37 157.29 51.88L116.6 37.5C114 36.58 112.63 33.72 113.55 31.12C114.47 28.52 117.32 27.15 119.93 28.07L166.15 44.41C168.6 45.28 170.24 47.59 170.24 50.19V112C170.24 114.76 172.48 117 175.24 117C178 117 180.24 114.76 180.24 112V45.59L187.52 42.65C190.24 41.55 190.24 37.71 187.53 36.61Z" fill="#8EC1F4"/>
</svg>